<svg xmlns="http://www.w3.org/2000/svg" viewBox="0 0 1000 1000" width="1000" height="1000">
  <defs>
    <linearGradient id="bg" x1="0" y1="0" x2="1" y2="1">
      <stop offset="0" stop-color="#0d1326"/>
      <stop offset="1" stop-color="#111a33"/>
    </linearGradient>
    <pattern id="grid" width="40" height="40" patternUnits="userSpaceOnUse">
      <path d="M40 0H0V40" fill="none" stroke="#2a3a63" stroke-width="0.6" opacity="0.5"/>
    </pattern>
    <pattern id="hatch" width="8" height="8" patternUnits="userSpaceOnUse" patternTransform="rotate(45)">
      <line x1="0" y1="0" x2="0" y2="8" stroke="#33457a" stroke-width="1"/>
    </pattern>
  </defs>

  <rect width="1000" height="1000" fill="url(#bg)"/>
  <rect width="1000" height="1000" fill="url(#grid)"/>

  <!-- Outer shell -->
  <rect x="28" y="40" width="944" height="924" rx="10" fill="none" stroke="#5874b8" stroke-width="10"/>
  <rect x="28" y="40" width="944" height="924" rx="10" fill="none" stroke="#7d97d8" stroke-width="2" opacity="0.6"/>

  <!-- Room shells (match seeded fraction polygons) -->
  <g fill="none" stroke="#42588f" stroke-width="5">
    <rect x="60" y="80" width="260" height="370" rx="6"/>
    <rect x="370" y="80" width="260" height="370" rx="6"/>
    <rect x="680" y="80" width="260" height="370" rx="6"/>
    <rect x="60" y="550" width="260" height="370" rx="6"/>
    <rect x="370" y="550" width="260" height="370" rx="6"/>
    <rect x="680" y="550" width="260" height="370" rx="6"/>
  </g>

  <!-- Corridor wash -->
  <rect x="40" y="462" width="920" height="76" fill="url(#hatch)" opacity="0.35"/>
  <text x="500" y="508" text-anchor="middle" fill="#6f86c4" font-family="monospace" font-size="20" letter-spacing="6" opacity="0.7">CORRIDOR</text>

  <!-- Door gaps (white notches) -->
  <g stroke="#0d1326" stroke-width="8">
    <line x1="180" y1="450" x2="220" y2="450"/>
    <line x1="490" y1="450" x2="530" y2="450"/>
    <line x1="800" y1="450" x2="840" y2="450"/>
    <line x1="180" y1="550" x2="220" y2="550"/>
    <line x1="490" y1="550" x2="530" y2="550"/>
    <line x1="800" y1="550" x2="840" y2="550"/>
  </g>

  <!-- Plan label -->
  <text x="52" y="978" fill="#4a5e94" font-family="monospace" font-size="16" opacity="0.8">FLOOR 3 — BC AURORA · scale ref</text>
</svg>
