<svg xmlns="http://www.w3.org/2000/svg" viewBox="0 0 1000 1000" width="1000" height="1000">
  <defs>
    <linearGradient id="bg" x1="0" y1="0" x2="1" y2="1">
      <stop offset="0" stop-color="#f8fafc"/>
      <stop offset="1" stop-color="#eef2f7"/>
    </linearGradient>
    <pattern id="grid" width="40" height="40" patternUnits="userSpaceOnUse">
      <path d="M40 0H0V40" fill="none" stroke="#cbd5e1" stroke-width="0.6" opacity="0.6"/>
    </pattern>
    <pattern id="hatch" width="8" height="8" patternUnits="userSpaceOnUse" patternTransform="rotate(45)">
      <line x1="0" y1="0" x2="0" y2="8" stroke="#cdd6e2" stroke-width="1"/>
    </pattern>
  </defs>

  <rect width="1000" height="1000" fill="url(#bg)"/>
  <rect width="1000" height="1000" fill="url(#grid)"/>

  <!-- Outer shell -->
  <rect x="28" y="40" width="944" height="924" rx="10" fill="none" stroke="#94a3b8" stroke-width="10"/>
  <rect x="28" y="40" width="944" height="924" rx="10" fill="none" stroke="#cbd5e1" stroke-width="2" opacity="0.8"/>

  <!-- Room shells (match seeded fraction polygons) -->
  <g fill="none" stroke="#b4c0cf" stroke-width="5">
    <rect x="60" y="80" width="260" height="370" rx="6"/>
    <rect x="370" y="80" width="260" height="370" rx="6"/>
    <rect x="680" y="80" width="260" height="370" rx="6"/>
    <rect x="60" y="550" width="260" height="370" rx="6"/>
    <rect x="370" y="550" width="260" height="370" rx="6"/>
    <rect x="680" y="550" width="260" height="370" rx="6"/>
  </g>

  <!-- Corridor wash -->
  <rect x="40" y="462" width="920" height="76" fill="url(#hatch)"/>
  <text x="500" y="508" text-anchor="middle" fill="#94a3b8" font-family="monospace" font-size="20" letter-spacing="6">CORRIDOR</text>

  <!-- Door gaps (notch the walls with the base colour) -->
  <g stroke="#f1f5f9" stroke-width="8">
    <line x1="180" y1="450" x2="220" y2="450"/>
    <line x1="490" y1="450" x2="530" y2="450"/>
    <line x1="800" y1="450" x2="840" y2="450"/>
    <line x1="180" y1="550" x2="220" y2="550"/>
    <line x1="490" y1="550" x2="530" y2="550"/>
    <line x1="800" y1="550" x2="840" y2="550"/>
  </g>

  <!-- Plan label -->
  <text x="52" y="978" fill="#94a3b8" font-family="monospace" font-size="16">FLOOR 3 — BC AURORA · scale ref</text>
</svg>
